<?xml version="1.0" encoding="UTF-8" standalone="no"?>
<!-- Generator: Adobe Illustrator 16.0.0, SVG Export Plug-In . SVG Version: 6.00 Build 0)  -->

<svg
   xmlns:dc="http://purl.org/dc/elements/1.1/"
   xmlns:cc="http://creativecommons.org/ns#"
   xmlns:rdf="http://www.w3.org/1999/02/22-rdf-syntax-ns#"
   xmlns:svg="http://www.w3.org/2000/svg"
   xmlns="http://www.w3.org/2000/svg"
   xmlns:xlink="http://www.w3.org/1999/xlink"
   xmlns:sodipodi="http://sodipodi.sourceforge.net/DTD/sodipodi-0.dtd"
   xmlns:inkscape="http://www.inkscape.org/namespaces/inkscape"
   version="1.1"
   id="Layer_1"
   x="0px"
   y="0px"
   width="100"
   height="112"
   viewBox="0 0 100 112"
   enable-background="new 0 0 1000 240.678"
   xml:space="preserve"
   sodipodi:docname="Disney Streaming Services logo.svg"
   inkscape:version="0.92.4 (5da689c313, 2019-01-14)"><title
   id="title851">National Hockey League shield</title><metadata
   id="metadata63"><rdf:RDF><cc:Work
       rdf:about=""><dc:format>image/svg+xml</dc:format><dc:type
         rdf:resource="http://purl.org/dc/dcmitype/StillImage" /><dc:title>National Hockey League shield</dc:title><dc:date>2 feb 2020</dc:date><dc:creator><cc:Agent><dc:title>EEIM</dc:title></cc:Agent></dc:creator></cc:Work></rdf:RDF></metadata><defs
   id="defs61"><radialGradient
     inkscape:collect="always"
     xlink:href="#linearGradient846"
     id="radialGradient850"
     cx="22.934696"
     cy="26.108109"
     fx="22.934696"
     fy="26.108109"
     r="22.934696"
     gradientTransform="matrix(1,0,0,1.1383673,0,-3.6125073)"
     gradientUnits="userSpaceOnUse" /><linearGradient
     inkscape:collect="always"
     id="linearGradient846"><stop
       style="stop-color:#ffffff;stop-opacity:1;"
       offset="0"
       id="stop842" /><stop
       style="stop-color:#ffffff;stop-opacity:0;"
       offset="1"
       id="stop844" /></linearGradient></defs><sodipodi:namedview
   pagecolor="#ffffff"
   bordercolor="#666666"
   borderopacity="1"
   objecttolerance="10"
   gridtolerance="10"
   guidetolerance="10"
   inkscape:pageopacity="0"
   inkscape:pageshadow="2"
   inkscape:window-width="1366"
   inkscape:window-height="705"
   id="namedview59"
   showgrid="false"
   inkscape:showpageshadow="false"
   inkscape:zoom="1"
   inkscape:cx="51.981158"
   inkscape:cy="108.80933"
   inkscape:window-x="-8"
   inkscape:window-y="-8"
   inkscape:window-maximized="1"
   inkscape:current-layer="Layer_1" />

<g
   id="Mobile-375-px-width"
   style="fill:#ffffff;fill-rule:evenodd;stroke:none;stroke-width:1"
   transform="matrix(2.121509,0,0,2.1055195,1.2139482,0.96078902)"><g
     id="Landing-Page-1---Legendary-Athletes"
     transform="translate(-80,-521)"
     style="fill:#ffffff"><g
       id="logos-on-top"
       transform="translate(43,423)"
       style="fill:#ffffff"><g
         id="nhl"
         transform="translate(37,98)"
         style="fill:#ffffff"><path
           d="m 15.783556,31.855231 -2.724296,-4.401989 -3.02533,2.396973 c 0,0 1.059357,0.03114 1.059357,1.202071 v 8.288699 l 2.135348,-1.691894 v -5.86034 l 2.433804,3.931442 2.255293,-1.7863 V 23.604591 l -2.134176,1.690658 z"
           id="Fill-1"
           style="fill:#ffffff"
           inkscape:connector-curvature="0" /><path
           d="m 25.110676,22.676442 -2.450831,1.920426 V 20.75328 l -3.308694,2.594241 c 0,0 1.076916,0.0316 1.076916,1.211028 v 8.34482 l 2.231778,-1.749732 v -3.803528 l 2.450831,-1.920426 v 3.803777 l 2.124277,-1.665879 V 17.166975 l -2.124277,1.667123 z"
           id="Fill-3"
           style="fill:#ffffff"
           inkscape:connector-curvature="0" /><path
           d="m 31.945471,21.342204 v -7.751682 l -3.2771,2.596594 c 0,0 1.066722,0.03138 1.066722,1.210765 v 8.352582 l 6.100371,-4.834591 c -0.131216,-1.665487 0,-2.655863 0,-2.655863 z"
           id="Fill-5"
           style="fill:#ffffff"
           inkscape:connector-curvature="0" /><path
           d="m 31.358932,43.269732 c -3.1619,0.814529 -7.028881,1.233765 -8.197281,1.906887 -0.26345,0.195278 -0.585309,0.541441 -0.585309,0.541441 0,0 -0.321858,-0.346163 -0.585062,-0.541441 -1.168646,-0.673122 -5.036367,-1.092358 -8.197281,-1.906887 -0.119526,-0.03068 -0.239053,-0.0636 -0.358579,-0.09851 L 38.314127,24.265201 c 0.849252,2.999994 2.143093,4.964492 2.143093,7.949771 0,5.99026 -4.716974,9.927486 -9.098288,11.05476 z M 11.120308,42.239224 C 7.7757916,40.501179 4.8490009,37.161756 4.7023657,32.576846 L 35.378957,9.263738 c 1.07056,1.502865 2.298107,2.431369 3.306564,2.990018 -0.506447,1.532044 -1.092988,3.900315 -1.092988,6.643679 0,1.137998 0.08231,2.146309 0.220569,3.057604 z M 7.5611373,18.897435 c 0,-2.743364 -0.5887591,-5.111635 -1.0934802,-6.643679 1.176286,-0.652921 2.6524965,-1.808127 3.8305079,-3.7958189 1.264267,0.7157687 3.058392,1.4380216 5.165751,1.4380216 3.191966,0 5.686244,-1.4108373 7.112426,-2.4710229 1.426922,1.0601856 3.920461,2.4710229 7.113906,2.4710229 0.50891,0 1.000323,-0.043146 1.46931,-0.116967 L 5.0252097,29.639701 C 5.7790875,26.65093 7.5611373,24.176167 7.5611373,18.897435 Z m 31.8600237,0 c 0,-4.322544 1.615946,-7.653986 1.615946,-7.653986 0,0 -3.726261,-0.761657 -5.462226,-5.5341134 0,0 -2.47333,2.3353511 -5.884633,2.3353511 -4.275343,0 -7.113906,-3.0376523 -7.113906,-3.0376523 0,0 -2.838809,3.0376523 -7.112426,3.0376523 -3.412782,0 -5.885866,-2.3353511 -5.885866,-2.3353511 -1.7354716,4.7724564 -5.461979,5.5341134 -5.461979,5.5341134 0,0 1.6156989,3.331442 1.6156989,7.653986 0,6.413487 -2.8649328,8.267253 -2.8649328,13.317537 0,7.061419 5.436595,11.555049 10.4761659,12.849419 3.991929,1.025519 6.601544,1.141987 8.355253,1.997917 0,0 0.637309,0.590821 0.878086,0.862164 0.241764,-0.271343 0.879565,-0.862164 0.879565,-0.862164 1.751491,-0.85593 4.361845,-0.972398 8.354021,-1.997917 5.040064,-1.29437 10.47592,-5.788 10.47592,-12.849419 0,-5.050284 -2.864687,-6.90405 -2.864687,-13.317537 z"
           id="Fill-7"
           style="fill:#ffffff"
           inkscape:connector-curvature="0" /><path
           d="m 24.684741,47.941609 c -0.233668,0.220754 -1.750044,1.87381 -1.750044,1.87381 0,0 -1.516869,-1.653056 -1.750537,-1.87381 -1.822018,-0.660034 -4.298946,-0.892433 -7.885797,-1.80419 C 5.748525,44.218268 1.6117659,37.848847 1.6117659,31.779712 c 0,-4.946286 2.3071004,-6.825547 2.7796122,-11.512676 0.053241,-0.533923 0.085284,-1.102037 0.085284,-1.717474 0,-4.691836 -2.2284716,-8.6550086 -2.2284716,-8.6550086 0,0 5.475666,-0.4804071 6.9595062,-7.1706772 0,0 3.2839203,3.3990229 6.6136873,3.3990229 4.290812,0 7.113313,-3.6658607 7.113313,-3.6658607 0,0 2.823979,3.6658607 7.115038,3.6658607 3.328535,0 6.611963,-3.3990229 6.611963,-3.3990229 1.484086,6.6902701 6.959752,7.1706772 6.959752,7.1706772 0,0 -2.227732,3.9631726 -2.227732,8.6550086 0,6.018344 2.863664,7.720953 2.863664,13.23015 0,6.069135 -4.136266,12.438556 -11.686104,14.357707 -3.586851,0.911757 -6.06304,1.144156 -7.886537,1.80419 M 45.869394,31.779712 c 0,-2.973866 -0.667482,-4.78648 -1.3569,-6.524271 -0.741674,-1.867617 -1.51194,-3.64827 -1.51194,-6.694977 0,-2.409221 0.575789,-4.540702 1.335949,-6.274529 l 1.508243,-3.4423806 -3.5484,-1.0527333 C 40.752364,7.3337034 39.626913,6.1603109 38.953023,4.3055776 L 37.388089,0 33.900818,2.9022636 c -1.147881,0.9553635 -2.458935,1.5797193 -3.851083,1.5797193 -1.867371,0 -3.71453,-0.9370292 -4.86882,-2.0846547 L 22.934697,0.16426505 20.688725,2.3973282 c -1.154536,1.1476255 -3.001449,2.0846547 -4.867341,2.0846547 -1.393626,0 -2.70542,-0.6243558 -3.851576,-1.5797193 L 8.4820445,0 6.9171107,4.3055776 C 6.2427276,6.1603109 5.1180161,7.3337034 3.5740336,7.7908211 L 0.02464851,8.8435544 1.5328907,12.285935 c 0.76016,1.733827 1.3357026,3.865308 1.3357026,6.274529 C 2.8685933,24.440558 0,25.608252 0,31.779712 c 0,1.882234 0.31845872,3.642571 0.88981113,5.261684 1.93367547,5.487147 6.77340997,9.335607 12.00678087,10.688625 3.3485,0.850809 4.90949,0.935047 7.405891,1.636209 0.325607,0.344139 2.632214,2.849986 2.632214,2.849986 0,0 2.3071,-2.505847 2.632461,-2.849986 2.496647,-0.701162 4.055912,-0.7854 7.407369,-1.636209 6.774642,-1.752903 12.894867,-7.688 12.894867,-15.950309"
           id="Fill-9"
           style="fill:url(#radialGradient850);fill-opacity:1;stroke:#000000;stroke-width:0.5;stroke-miterlimit:4;stroke-dasharray:none;stroke-opacity:1"
           inkscape:connector-curvature="0" /></g></g></g></g><path
   inkscape:connector-curvature="0"
   style="opacity:1;fill:#000000;fill-opacity:1;stroke:none;stroke-width:0;stroke-miterlimit:4;stroke-dasharray:none"
   d="m 49.922223,6.597749 -2.33697,2.043828 C 42.701052,12.906496 36.752723,14.750089 31.910125,13.498252 28.705819,12.66992 25.531087,10.988158 23.009715,8.78551 20.833259,6.884142 20.565017,6.791604 20.565017,7.938355 c 0,1.509447 -3.129142,7.057427 -5.138019,9.108856 -1.941288,1.982367 -6.7236346,4.629806 -8.3617374,4.63048 -0.6191408,2.73e-4 -0.7390491,0.194128 -0.484807,0.773124 3.0961508,7.051659 4.4419724,13.616858 4.0897174,19.961314 -0.21283,3.833372 -0.559336,5.271505 -2.8300717,11.785982 -2.4708575,7.088611 -2.5978304,7.651563 -2.7596162,12.53441 -0.1953905,5.894043 0.420971,8.986567 2.7596162,13.866824 3.0025077,6.265563 7.9273997,11.290511 14.2828887,14.578259 3.598589,1.861553 5.376477,2.379616 15.787018,4.601698 l 8.224985,1.755988 1.715452,2.0027 c 0.942629,1.09942 1.816181,1.9986 1.943322,1.9986 0.127079,0 1.012152,-0.88008 1.964051,-1.95337 1.900405,-2.1427 0.566231,-1.70718 14.887859,-4.836108 9.14523,-1.998011 14.453649,-4.74662 19.636389,-10.161595 5.650045,-5.903181 8.060609,-11.542773 8.403169,-19.681679 0.239562,-5.691682 -0.05218,-7.091558 -3.439157,-16.552183 -1.784548,-4.984628 -1.906578,-5.633402 -2.080075,-11.033406 -0.163144,-5.076766 -0.05452,-6.237622 0.944729,-10.075248 0.621178,-2.385385 1.638102,-5.444346 2.262398,-6.79769 0.624276,-1.353365 1.083964,-2.492577 1.019301,-2.533214 -0.0647,-0.04064 -1.016733,-0.324207 -2.117351,-0.629191 C 86.540994,19.971188 81.538794,15.048357 79.909263,10.093227 79.490287,8.81922 79.064988,7.63337 78.964513,7.457222 78.863958,7.280991 77.715051,7.99952 76.412084,9.052806 73.500992,11.40604 69.977929,13.152042 67.051753,13.691539 62.478543,14.534653 56.547016,12.5091 52.180463,8.612794 Z m -0.911591,4.947129 2.896368,2.010939 c 4.303587,2.985753 7.159245,3.897907 12.24011,3.914961 3.875169,0.01263 4.482875,-0.106325 7.338258,-1.447545 1.712078,-0.804181 3.561079,-1.87766 4.110422,-2.38928 0.549344,-0.51162 1.048365,-0.846419 1.110483,-0.744321 0.06216,0.102121 0.706802,1.358312 1.429536,2.792276 1.613386,3.201063 4.791746,6.43015 7.653174,7.776441 1.18149,0.555878 2.221687,1.068403 2.307968,1.135001 0.08634,0.06654 -0.268073,1.375452 -0.783133,2.911533 -2.241777,6.685803 -2.840319,14.107254 -1.636702,20.286196 0.346951,1.781227 1.544565,5.780661 2.66016,8.890871 1.129216,3.148173 2.211991,7.112993 2.440563,8.940246 1.034341,8.268586 -1.719462,16.104402 -7.740177,22.03803 -5.123338,5.049225 -9.977414,7.452297 -18.774527,9.289784 -2.875747,0.600662 -6.914888,1.484033 -8.97498,1.961585 -2.601945,0.603168 -4.109447,1.213645 -4.93499,1.998605 -1.074163,1.02134 -1.246429,1.05962 -1.781749,0.41946 -1.077069,-1.28801 -2.887098,-1.906275 -9.588223,-3.281643 C 26.440577,95.473704 23.187286,94.261366 18.041587,90.246898 10.578162,84.424254 6.8991259,76.63381 7.3387442,67.579656 7.5175877,63.895944 7.8601056,62.476088 10.160499,55.884169 l 2.618749,-7.50504 -0.02121,-7.500891 c -0.0191,-6.818894 -0.127715,-7.84605 -1.189212,-11.255497 -0.64235,-2.063282 -1.284467,-4.048429 -1.425378,-4.412537 -0.1839346,-0.47511 0.342856,-0.902826 1.860458,-1.517447 2.749051,-1.113357 6.724631,-5.072471 8.287144,-8.253489 l 1.222349,-2.487967 2.22924,1.488666 c 2.750748,1.837171 7.276542,3.269325 10.338219,3.269325 4.415093,0 8.924742,-1.612976 12.869942,-4.601718 z m 0.09123,5.251481 -2.125645,1.340605 c -6.463814,4.068349 -14.205327,4.820567 -21.111497,2.052061 -2.623118,-1.051517 -2.859772,-1.079816 -3.240286,-0.374215 -0.539139,0.999765 -5.615528,6.027977 -6.629716,6.567411 -0.75148,0.399712 -0.739282,0.61418 0.198786,4.36731 0.783854,3.135666 0.983913,5.220931 0.982046,10.128707 -0.0021,6.782972 -0.504517,9.320145 -3.484749,17.54323 -0.857747,2.366709 -1.475637,4.301512 -1.371534,4.301512 0.139384,0 46.929114,-35.146783 53.410642,-40.119998 0.867697,-0.665766 0.746007,-0.706612 -2.233376,-0.76902 -3.672989,-0.07685 -8.821064,-1.636284 -12.182107,-3.688765 z m 27.07824,3.869713 -3.459885,2.640111 c -2.52922,1.929876 -60.507365,45.628438 -61.403574,46.280306 -0.07341,0.05327 0.09568,1.406908 0.377055,3.010241 1.0214,5.821066 4.566358,11.234546 9.919709,15.145759 1.434097,1.047769 2.763498,1.904 2.954371,1.904 0.190935,0 12.926184,-9.483323 28.30059,-21.075744 l 27.956693,-21.079871 0.0995,-5.954662 c 0.06025,-3.486298 0.406142,-7.327354 0.832862,-9.265127 1.295944,-5.885201 1.343976,-5.425545 -0.716858,-6.842939 -1.022228,-0.703054 -2.534461,-2.060756 -3.360427,-3.018451 z m -7.363121,8.870321 0.219618,7.969707 0.223756,7.973834 3.961238,-3.076037 c 2.179151,-1.689806 4.031335,-3.071911 4.114582,-3.071911 0.08316,0 0.153385,1.278093 0.153385,2.837524 v 2.833398 l -6.115928,4.79911 c -3.363016,2.639059 -6.361918,4.945739 -6.662853,5.128077 -0.425151,0.257442 -0.573933,-1.808115 -0.667109,-9.273318 -0.119016,-9.532445 -0.127714,-9.614012 -1.143641,-10.116368 -0.987881,-0.488502 -0.902957,-0.59982 2.444721,-3.25286 z m -9.824412,7.591388 c 0.1449,0 0.261053,4.915483 0.261053,10.926487 v 10.930594 l -2.444721,1.895789 -2.4447,1.895788 v -3.997181 -3.993096 l -2.4447,1.871112 -2.444721,1.875239 v 4.046534 l -0.0042,4.04245 -1.889458,1.443418 c -1.039475,0.793612 -2.138989,1.631314 -2.44472,1.858794 -0.440192,0.327514 -0.55522,-1.486243 -0.55522,-8.709943 0,-9.109762 -0.002,-9.123153 -1.098052,-10.210948 l -1.09805,-1.089776 3.430883,-2.705929 3.43502,-2.710014 0.128352,3.816233 c 0.07064,2.099813 0.241237,3.820381 0.381214,3.820381 0.140019,0 1.232405,-0.815869 2.42813,-1.809442 l 2.175374,-1.805314 0.01697,-4.042429 0.02121,-4.038323 2.162985,-1.657276 c 1.189849,-0.910278 2.283189,-1.653148 2.42813,-1.653148 z M 38.970829,50.80953 c 0.149567,0 0.270281,4.914577 0.269326,10.922382 v 10.922382 l -2.419836,1.858775 -2.423993,1.854667 -2.357697,-3.816254 -2.357675,-3.816254 -0.124321,5.68326 c -0.06874,3.125896 -0.308636,5.902487 -0.534535,6.172625 -0.225877,0.270117 -1.317118,1.135675 -2.423993,1.924571 l -2.013758,1.435207 -0.116051,-9.606432 c -0.118168,-9.467574 -0.136625,-9.616351 -1.122915,-10.104009 -0.959028,-0.474227 -0.869733,-0.596789 2.167079,-2.981458 1.743032,-1.368735 3.337133,-2.389491 3.538613,-2.265897 0.201544,0.123594 1.425993,1.958155 2.72232,4.075338 l 2.357698,3.849142 0.120076,-6.258993 0.124321,-6.258972 2.162942,-1.792977 c 1.189105,-0.988056 2.282786,-1.797103 2.432289,-1.797103 z m 42.977125,2.10552 C 81.662526,52.98138 69.91711,61.714668 55.847602,72.321202 35.353716,87.770851 30.42859,91.673557 31.0856,91.9494 c 0.451076,0.189497 4.187964,1.025936 8.303735,1.858795 4.115748,0.832838 7.917407,1.81519 8.448739,2.183655 0.531332,0.368487 0.993396,0.682337 1.023458,0.69497 0.03012,0.01263 0.926632,-0.36114 1.99721,-0.830691 1.070556,-0.469552 5.35157,-1.544673 9.509495,-2.38926 4.157923,-0.844607 8.688002,-1.957143 10.068872,-2.471522 5.86332,-2.184138 11.338679,-6.918589 13.930697,-12.045065 3.228024,-6.384335 3.255497,-11.937495 0.0995,-20.639838 -1.158811,-3.195231 -2.218717,-5.465297 -2.519291,-5.395394 z"
   id="path834" /></svg>